<?xml version="1.0" encoding="UTF-8"?><svg id="_图层_2" xmlns="http://www.w3.org/2000/svg" viewBox="0 0 286.39 150.02"><defs><style>.cls-1{fill:#3a3b44;}</style></defs><g id="_图层_1-2"><path class="cls-1" d="m129.34,15.54h13.82c.21,0,.39.17.39.39v7.12c0,.21-.17.39-.39.39h-13.82c-.21,0-.39-.17-.39-.39v-7.12c0-.21.17-.39.39-.39Z"/><path class="cls-1" d="m196.52,15.93v7.12c0,.22-.17.39-.38.39h-41.79c-.22,0-.39-.17-.39-.39v-7.12c0-.21.17-.39.39-.39h41.79c.21,0,.38.18.38.39Z"/><path class="cls-1" d="m188.26,40.96v19.7h10.62c.21,0,.39.18.39.39v7.11c0,.22-.18.4-.39.4h-12.18c-3.5,0-6.34-2.84-6.34-6.33v-21.27h-12.24v5.22c0,11.99-7.27,18.8-13.6,23.4-.07.06-.16.08-.26.06-.1-.02-.19-.07-.24-.15l-4.16-5.85c-.11-.16-.07-.38.1-.51,7.29-5.33,10.27-10.25,10.27-16.96v-5.22h-8.61c-.23,0-.4-.17-.4-.4v-7.11c0-.22.17-.39.4-.39h47.26c.21,0,.39.18.39.39v7.11c0,.22-.18.4-.39.4h-10.62Z"/><path class="cls-1" d="m198.88,75.09h-43.02c-6.56,0-11.89-5.34-11.89-11.89v-29.76c0-.2-.18-.37-.38-.37h-14.24c-.22,0-.39.17-.39.38v7.13c0,.22.17.39.39.39h6.72v22.24c0,1.2.11,2.41.34,3.6l.03.19c.06.37.16.76.28,1.15-1.8,3.01-4.08,4.51-7.35,6.03-.19.09-.32.28-.32.49v8.31c0,.1.05.19.14.25.08.06.19.08.27.05,4.57-1.55,8.26-4.01,11.2-7.44,3.75,4.51,9.32,7.16,15.21,7.16h43.02c.21,0,.39-.18.39-.4v-7.11c0-.2-.19-.39-.39-.39Z"/><path class="cls-1" d="m279.27,52.57h-58.47c-.26,0-.47.21-.47.46v11.46c0,2.53,2.08,4.58,4.65,4.58h22.79v6.42h-5.3c-.26,0-.48.21-.48.48v6.64c0,.26.22.47.48.47h6.58c3.54,0,6.43-2.84,6.43-6.33v-7.67h19.61c2.56,0,4.64-2.05,4.64-4.57v-11.47c0-.25-.21-.46-.47-.46Zm-6.9,10.27h-44.67v-4.05h44.69l-.02,4.05Z"/><path class="cls-1" d="m233.25,72.46l-6.89,10.29c-.15.21-.38.33-.63.33h-8.18c-.15,0-.22-.1-.24-.14-.02-.05-.07-.16.02-.29l6.89-10.29c.14-.21.37-.33.63-.33h8.17c.15,0,.23.1.25.15.02.04.06.16-.02.28Z"/><path class="cls-1" d="m282.75,82.94s-.09.14-.24.14h-8.18c-.25,0-.48-.13-.62-.33l-6.9-10.29c-.08-.12-.03-.24,0-.28.02-.05.1-.15.24-.15h8.18c.25,0,.48.13.62.33l6.9,10.29c.08.13.03.24,0,.29Z"/><path class="cls-1" d="m285.75,43.02h-31.86v-3.36h21.19c2.57,0,4.65-2.05,4.65-4.57V14.97c0-.25-.21-.45-.46-.45h-58.49c-.25,0-.46.2-.46.45v20.12c0,2.53,2.08,4.57,4.64,4.57h21.21v3.36h-31.88c-.26,0-.48.21-.48.47v5.26c0,.26.21.47.48.47h71.45c.27,0,.48-.21.48-.47v-5.25c0-.26-.22-.48-.48-.48Zm-58.08-22.3h44.71v3.45h-44.71v-3.45Zm0,12.73v-3.44h44.71v3.44h-44.71Z"/><path class="cls-1" d="m42.9,78.77c21.25,4.9,37.85.68,47.17-11.86.12-.16-.08-.36-.24-.23-7.5,6.09-23.27,10.19-56.42.71-2.29-.65-4.25-.98-5.85-.98-1.88,0-3.24.46-4.02,1.37-1.66,1.95-.44,5.42.44,7.32,2.36,5.07,11.33,15.06,28.45,16.53,9.8.84,18.34-1.98,23.72-5.24.18-.11.04-.38-.15-.3-12.41,5.04-32.08,2.24-36.63-5.64-.36-.61-.4-1.11-.12-1.49.44-.6,1.56-.65,3.63-.18Z"/><path class="cls-1" d="m79.56,13.39C70.66,4.76,59.01,0,46.76,0h0c-.09,0-.13.09.04.11,9.31,1.19,18.22,5.76,25.07,12.86,6.49,6.72,10.22,14.8,10.22,22.16,0,4.67-3.17,7.94-7.72,7.94-5.77,0-13.02-1.8-20.69-3.7-9.41-2.34-20.08-4.99-30.53-4.99-14.28,0-23.16,6.2-23.16,16.17,0,12.29,4.96,23.87,13.96,32.6,8.9,8.64,20.55,13.4,32.8,13.4.07,0,.1-.12-.04-.14-20.2-2.38-35.3-20.44-35.3-35.01,0-4.67,3.18-7.94,7.73-7.94,5.59,0,12.42,1.69,20.33,3.65,9.52,2.36,20.31,5.03,30.89,5.03,14.27,0,23.15-6.19,23.15-16.16,0-12.3-4.96-23.87-13.95-32.61Z"/><path class="cls-1" d="m50.61,17.78c-21.25-4.9-37.85-.68-47.17,11.86-.12.16.08.36.24.23,7.5-6.09,23.27-10.19,56.42-.71,2.29.65,4.25.98,5.85.98,1.88,0,3.24-.46,4.02-1.37,1.66-1.95.44-5.42-.44-7.32-2.36-5.07-11.33-15.06-28.45-16.53-9.8-.84-18.34,1.98-23.72,5.24-.18.11-.04.38.15.3,12.41-5.04,32.08-2.24,36.63,5.64.36.61.4,1.11.12,1.49-.44.6-1.56.65-3.63.18Z"/><path class="cls-1" d="m19.9,133c.22-.14.51-.33.79-.54l.06-.04-2.45-1.53-.03-.02-.03.02c-4.03,2.91-11.41,5.12-16.51,6.12l-.09.02.06.07c.68.75,1.37,1.77,1.76,2.45l.02.03h.04c5.11-1.24,10.17-3.08,13.88-5.06,4.13,2.1,10.56,4.04,14.79,4.88h.03s.02-.02.02-.02c.44-.75,1.3-1.92,1.97-2.59l.07-.07h-.1c-5.94-.86-11.54-2.52-14.28-3.71Z"/><rect class="cls-1" x="20.75" y="130.04" width="8.38" height="2.04"/><polygon class="cls-1" points="6.05 125.19 16.17 125.19 16.17 130.42 19.39 130.42 19.39 125.19 29.65 125.19 29.65 129.24 32.73 129.24 32.73 122.94 19.39 122.94 19.39 121.45 30.51 121.45 30.51 118.96 5.22 118.96 5.22 121.45 16.17 121.45 16.17 122.94 3.07 122.94 3.07 129.24 6.05 129.24 6.05 125.19"/><rect class="cls-1" x="6.68" y="130.04" width="8.17" height="2.04"/><path class="cls-1" d="m27.8,138.98l-.5.18h-8.12l1.17-.88-.03-.04c-.7-.92-2.11-2.16-3.13-2.92l-.03-.02-1.94,1.41-.05.04.05.04c.59.52,1.68,1.5,2.45,2.37H6.4v2.49h17.86c-1.91,1.19-4.23,2.38-6.1,3.12-2.47-.75-4.78-1.38-6.67-1.83h-.04s-1.3,2.09-1.3,2.09l.07.02c4.97,1.32,11.17,3.49,14.13,4.95l.04.02,1.34-2.4.03-.05-.05-.02c-1.27-.55-2.57-1.06-3.84-1.52,3.41-1.75,6.34-3.76,8.05-5.5l.04-.04-2.13-1.49h-.02Z"/><rect class="cls-1" x="20.75" y="126.61" width="7.55" height="1.97"/><rect class="cls-1" x="7.44" y="126.61" width="7.38" height="1.97"/><path class="cls-1" d="m63.65,130.01h-5.7c.64-2.49,1.14-5,1.5-7.49h5.27v-2.94h-12.09v2.94h3.73c-.8,6.15-2.19,10.75-4.14,13.68l-.02.03.02.03c.51.68,1.38,2.17,1.69,2.9l.04.09.05-.08c.38-.58.72-1.15,1.02-1.67v10.36h2.77v-2.7h5.86v-15.14Zm-2.8,2.91v9.33h-3.05v-9.33h3.05Z"/><path class="cls-1" d="m84.41,131.32v-2.84h-13.58l.1-1.76-2.93-.18h-.05s-.07,1.94-.07,1.94h-3.5v2.84h3.36c-.49,7.49-1.76,12.23-4.11,15.34l-.03.04.04.03c.71.46,1.92,1.47,2.35,1.97l.04.05.04-.05c2.55-3.75,3.97-9.11,4.61-17.37h13.73Z"/><path class="cls-1" d="m77.93,138.34c.29-1.98.39-4.28.45-6.48v-.05s-2.77,0-2.77,0v.05c-.22,8.64-1.02,12.99-7.45,15.44l-.08.03.06.05c.53.47,1.34,1.54,1.65,2.2l.02.04.04-.02c3.64-1.49,5.81-3.59,7.02-6.81,1.42,3.24,3.46,5.4,6.21,6.6l.04.02.02-.04c.35-.7,1.14-1.72,1.72-2.24l.06-.05-.08-.03c-3.47-1.27-5.8-4.21-6.93-8.72Z"/><path class="cls-1" d="m79.11,140.44l-.02.05,1.85.75.04.02.02-.04c.63-1.18,1.3-2.77,1.95-4.32.25-.59.51-1.21.76-1.79l.02-.05-2.56-.9v.05c-.41,1.77-1.29,4.45-2.05,6.23Z"/><path class="cls-1" d="m71.8,134.39c-.22,1.91-.79,4.53-1.73,6.11l-.03.05,2.14,1.01.02-.04c1.02-1.93,1.59-4.88,1.77-6.81v-.05s-2.12-.32-2.12-.32h-.05s0,.04,0,.04Z"/><polygon class="cls-1" points="83.3 118.78 80.39 118.78 80.39 123.36 76.02 123.36 76.02 117.71 73.04 117.71 73.04 123.36 68.67 123.36 68.67 118.78 65.87 118.78 65.87 126.09 83.3 126.09 83.3 118.78"/><path class="cls-1" d="m126.86,142.84c3.13-3,5.4-6.86,6.73-11.45v-.04s-2.11-.85-2.11-.85h-.01s-.56.1-.56.1h-4.87v-4.65h8v-3.04h-8v-5.2h-3.29v5.2h-7.76v3.04h7.76v4.65h-7.14v3.05h1.1l-.18.06.02.05c1.33,3.51,3.08,6.44,5.34,8.95-2.64,1.77-5.61,3.08-8.84,3.88l-.08.02.05.06c.6.71,1.39,2.09,1.72,2.9l.02.04h.04c3.58-1.05,6.75-2.6,9.44-4.61,2.58,2.15,5.51,3.67,8.96,4.66h.04s.02-.02.02-.02c.47-.87,1.37-2.13,2.07-2.72l.07-.06-.09-.02c-3.23-.85-6.07-2.19-8.46-3.98Zm-2.47-2.18c-1.92-1.96-3.45-4.32-4.57-7.02h9.55c-1.14,2.66-2.82,5.02-4.98,7.02Z"/><path class="cls-1" d="m114.91,135.64l-.39-2.95v-.06s-3.57.93-3.57.93v-5.98h3.64v-3.11h-3.64v-6.76h-3.25v6.79h-4.26v3.08h4.26v6.88l-.12.03c-1.67.4-3.21.77-4.48,1.07h-.05s.84,3.15.84,3.15v.05s.06-.01.06-.01c1.15-.3,2.33-.62,3.75-1.02v8.15c0,.46-.16.61-.65.61-.41.03-1.87.03-3.39,0h-.08s.04.07.04.07c.4.77.82,2.12.97,2.9v.04h.05c.27,0,.53,0,.79,0,1.82,0,3.23-.12,4.16-.57.99-.48,1.38-1.34,1.38-3.06v-9.08l3.91-1.13h.04Z"/><path class="cls-1" d="m179.21,125.41l.03.04,2.53-2.29.04-.03-.04-.04c-1.49-1.57-4.72-3.94-6.04-4.89l-.03-.02-2.42,2-.05.04.05.04c2.07,1.54,4.7,3.73,5.92,5.16Z"/><path class="cls-1" d="m172.96,129.55h11.53v-3.25h-12.93v-8.56h-3.63v8.56h-13.24v3.25h12.34c-3,5.51-8.29,10.77-13.49,13.42l-.07.03.06.05c.84.73,1.93,2.05,2.45,2.76l.03.04.04-.02c4.34-2.49,8.56-6.63,11.88-11.66v15.44h3.63v-16.72c3.39,5.1,7.7,9.84,11.56,12.7l.04.03.03-.04c.65-.94,1.79-2.2,2.59-2.87l.05-.04-.06-.04c-4.58-2.85-9.73-8.09-12.83-13.08Z"/><path class="cls-1" d="m232.29,134.9c1.14-2.42,2.59-6.2,3.78-9.88l.02-.05-3.52-.95h-.05s-.01.04-.01.04c-.71,3.15-2.06,7.31-3.22,9.9l-.02.05,3,.93.02-.04Z"/><path class="cls-1" d="m214.29,134.21l3.17,1.23.04.02.02-.04c1.38-3.03,2.11-7.56,2.33-10.79v-.05s-3.09-.46-3.09-.46h-.05s0,.04,0,.04c-.33,3.2-1.13,7.51-2.39,10l-.02.05Z"/><path class="cls-1" d="m215.4,118.73l-3.13-1.02h-.05s-.02.03-.02.03c-1.84,5.06-4.88,10-8.13,13.22l-.03.03.02.03c.52.84,1.45,2.63,1.76,3.35l.03.07.05-.05c.92-.95,1.85-2.08,2.79-3.35v18.5h3.46v-23.91c1.21-2.18,2.33-4.55,3.22-6.86l.02-.05Z"/><path class="cls-1" d="m226.4,131.1c.35-3.85.35-8.09.35-13v-.05h-3.53v.05c0,.67,0,1.33,0,1.98-.01,13.9-.02,22.28-10.09,26.77l-.08.03.07.05c.73.57,1.78,1.81,2.24,2.65l.02.04.04-.02c4.98-2.34,8.03-5.75,9.58-10.73,1.78,5.38,4.76,8.75,9.37,10.59l.04.02.02-.04c.45-.93,1.44-2.27,2.17-2.93l.06-.06-.08-.03c-5.84-1.96-8.89-6.54-10.19-15.33Z"/><path class="cls-1" d="m269.35,128.38l.02.05,2.75-1.52.04-.02-.02-.04c-.93-1.83-2.85-4.84-4.58-7.18l-.02-.03-2.64,1.23-.05.02.03.05c1.51,2.16,3.56,5.41,4.46,7.44Z"/><path class="cls-1" d="m280.63,128.37l.04.03.02-.04c1.23-2.13,2.77-5.34,3.75-7.8l.02-.05-2.96-.85h-.04s-.02.03-.02.03c-.9,2.45-2.29,5.33-3.56,7.34l-.03.05.06.02c.69.28,2.04.88,2.73,1.28Z"/><path class="cls-1" d="m264.47,118.73l-3.07-.85h-.05s-.01.03-.01.03c-1.53,5.3-4.05,10.4-6.75,13.63l-.02.03.02.03c.53.84,1.35,2.65,1.59,3.38l.03.09.06-.07c.89-1.07,1.68-2.17,2.41-3.35v17.93h3.18v-23.98c1.09-2.54,1.94-4.77,2.6-6.82l.02-.05Z"/><polygon class="cls-1" points="276.62 136.73 276.62 132.19 285.01 132.19 285.01 129.07 276.62 129.07 276.62 117.74 273.3 117.74 273.3 129.07 265.12 129.07 265.12 132.19 273.3 132.19 273.3 136.73 263.7 136.73 263.7 139.85 273.3 139.85 273.3 149.58 276.62 149.58 276.62 139.85 286.39 139.85 286.39 136.73 276.62 136.73"/></g></svg>